# xmcd
#
# Track frame offsets: 
#        150
#        14493
#        31491
#        45517
#        56207
#        71425
#        91237
#        103870
#        122525
#        137507
#        160352
#        181511
#        195916
#        213659
#        231629
#        246913
#        265648
#        280917
#        299522
#        318638
#        332088
#
# Disc length: 4641 seconds
#
# Revision: 1
# Processed by: cddbd v1.5.2PL0 Copyright (c) Steve Scherf et al.
# Submitted via: ExactAudioCopy v1.0b3
#
DISCID=39121f15
DTITLE=Various Artist - Heimatsound Vol. 2 [CD1]
DYEAR=2015
DGENRE=Alternative
TTITLE0=Django 3000 - Nomoi vo vorn
TTITLE1=Schmidbauer and Kälberer - Wo bleibt die Musik?
TTITLE2=Sabine Stieger - Geh bitte
TTITLE3=Lenze and de Buam - Aloa Aloa
TTITLE4=Mathias Kellner - Kloana Bua
TTITLE5=Hubert von Goisern - Schnaps
TTITLE6=Haindling - Bayern Remix
TTITLE7=Monobo Son - Traumined
TTITLE8=Blechbixn - Großstadtfiaba
TTITLE9=Wolfgang Ambros - Es lebe der Zentralfriedhof
TTITLE10=Julian Heidenreich - Their Favourite Song
TTITLE11=D'Raith-Schwestern and da Blaimer - August-Frust-Song
TTITLE12=Gankino Circus - Sexy Kerwa
TTITLE13=Ernst Molden - Ho Rugg
TTITLE14=Coconami - Sommer in der Stadt
TTITLE15=Carolin No - Three Minute Song
TTITLE16=Worried Man and Worried Boy - Der schönste Mann von Wien
TTITLE17=Claudia Koreck - Frei
TTITLE18=Flo Pfeifer - Melodie
TTITLE19=Alex Cumfe - Wejnreiten
TTITLE20=Hundling - Probiert hod a's
EXTD=
EXTT0=
EXTT1=
EXTT2=
EXTT3=
EXTT4=
EXTT5=
EXTT6=
EXTT7=
EXTT8=
EXTT9=
EXTT10=
EXTT11=
EXTT12=
EXTT13=
EXTT14=
EXTT15=
EXTT16=
EXTT17=
EXTT18=
EXTT19=
EXTT20=
PLAYORDER=
